<?xml version="1.0" encoding="UTF-8" standalone="no"?>
<!-- Created with Inkscape (http://www.inkscape.org/) -->

<svg
   xmlns:dc="http://purl.org/dc/elements/1.1/"
   xmlns:cc="http://creativecommons.org/ns#"
   xmlns:rdf="http://www.w3.org/1999/02/22-rdf-syntax-ns#"
   xmlns:svg="http://www.w3.org/2000/svg"
   xmlns="http://www.w3.org/2000/svg"
   xmlns:sodipodi="http://sodipodi.sourceforge.net/DTD/sodipodi-0.dtd"
   xmlns:inkscape="http://www.inkscape.org/namespaces/inkscape"
   width="600"
   height="600"
   id="svg3166"
   version="1.1"
   inkscape:version="0.48.5 r10040"
   inkscape:export-filename="/home/peter/downloads/noun_36203_cc.png"
   inkscape:export-xdpi="2194.23"
   inkscape:export-ydpi="2194.23"
   sodipodi:docname="propeller_labs_proposed_logo.svg"
   style="enable-background:new">
  <defs
     id="defs3168">
    <filter
       inkscape:collect="always"
       id="filter4157"
       color-interpolation-filters="sRGB">
      <feBlend
         inkscape:collect="always"
         mode="lighten"
         in2="BackgroundImage"
         id="feBlend4159" />
    </filter>
  </defs>
  <sodipodi:namedview
     id="base"
     pagecolor="#ffffff"
     bordercolor="#666666"
     borderopacity="1.0"
     inkscape:pageopacity="0.0"
     inkscape:pageshadow="2"
     inkscape:zoom="0.61536707"
     inkscape:cx="512.37917"
     inkscape:cy="218.4468"
     inkscape:current-layer="layer2"
     inkscape:document-units="px"
     showgrid="false"
     inkscape:window-width="1916"
     inkscape:window-height="1041"
     inkscape:window-x="0"
     inkscape:window-y="18"
     inkscape:window-maximized="0"
     showguides="true" />
  <metadata
     id="metadata3171">
    <rdf:RDF>
      <cc:Work
         rdf:about="">
        <dc:format>image/svg+xml</dc:format>
        <dc:type
           rdf:resource="http://purl.org/dc/dcmitype/StillImage" />
        <dc:title></dc:title>
      </cc:Work>
    </rdf:RDF>
  </metadata>
  <g
     inkscape:groupmode="layer"
     id="layer2"
     inkscape:label="Layer"
     style="display:inline;filter:url(#filter4157)">
    <g
       id="g4206"
       transform="matrix(1.3538058,0,0,1.3538058,-193.60012,-207.50625)">
      <g
         transform="matrix(1.9425268,0,0,1.9425268,267.47551,372.68207)"
         id="g3345">
        <path
           style="fill-rule:evenodd"
           inkscape:connector-curvature="0"
           clip-rule="evenodd"
           d="m 50.071,27.404928 c 4.992717,0 9.047035,4.015764 9.047035,8.963759 0,4.952621 -4.055089,8.968385 -9.047035,8.968385 -4.996573,0 -9.047035,-4.015764 -9.047035,-8.968385 0,-4.947995 4.050462,-8.963759 9.047035,-8.963759"
           id="path3347" />
        <path
           style="fill-rule:evenodd"
           inkscape:connector-curvature="0"
           clip-rule="evenodd"
           d="m 63.21,32.222 0.093,0.092 c 14.102,-2.42 26.854,-9.807 35.923,-20.8 l 0.012,-0.023 C 99.729,10.934 100,10.229 100,9.5 100,7.803 98.575,6.433 96.829,6.433 c -0.179,0 -0.351,0.011 -0.528,0.04 L 96.209,6.364 C 82.075,8.658 69.255,15.953 60.103,26.894 l 0.172,0.029 c 1.422,1.543 2.474,3.384 3.083,5.396 L 63.21,32.222 z"
           id="path3349" />
        <path
           style="fill-rule:evenodd"
           inkscape:connector-curvature="0"
           clip-rule="evenodd"
           d="M 3.596,6.535 3.694,6.473 C 3.519,6.444 3.344,6.433 3.172,6.433 1.423,6.433 0,7.803 0,9.5 c 0,0.7 0.247,1.382 0.703,1.928 l 0.043,0.045 c 9.012,11.017 21.73,18.421 35.797,20.84 l -0.006,0.006 c 0.608,-2.002 1.663,-3.842 3.088,-5.38 L 39.62,26.893 C 30.51,15.952 17.732,8.657 3.646,6.363 l -0.05,0.172 z"
           id="path3351" />
        <path
           style="fill-rule:evenodd"
           inkscape:connector-curvature="0"
           clip-rule="evenodd"
           d="m 52.953,49.874 v 0.022 c -1.001,0.195 -2.026,0.299 -3.062,0.299 -1.063,0 -2.124,-0.109 -3.165,-0.321 l -0.089,0.132 c -2.392,6.526 -3.613,13.425 -3.613,20.376 0,7.197 1.308,14.332 3.866,21.059 l 0.04,0.086 c 0.464,1.273 1.646,2.11 2.961,2.11 1.316,0 2.498,-0.837 2.968,-2.11 l -0.062,-0.086 c 2.552,-6.727 3.859,-13.861 3.859,-21.059 0,-6.951 -1.221,-13.85 -3.607,-20.376 l -0.096,-0.132 z"
           id="path3353" />
      </g>
      <path
         inkscape:export-ydpi="7.8400002"
         inkscape:export-xdpi="7.8400002"
         inkscape:export-filename="/home/peter/downloads/path4186.png"
         sodipodi:nodetypes="ccc"
         inkscape:connector-curvature="0"
         id="path4141"
         d="m 268.94517,353.80548 c 48.29765,-26.9177 66.49565,-8.49031 95.06521,-5.68766 39.79958,8.05419 61.22908,-5.9357 79.62727,-23.56317"
         style="fill:none;stroke:#000000;stroke-width:15;stroke-linecap:butt;stroke-linejoin:miter;stroke-miterlimit:4;stroke-opacity:1;stroke-dasharray:none" />
      <path
         inkscape:export-ydpi="7.8400002"
         inkscape:export-xdpi="7.8400002"
         inkscape:export-filename="/home/peter/downloads/path4186.png"
         sodipodi:type="arc"
         style="fill:none;stroke:#000000;stroke-width:21.22284508;stroke-miterlimit:4;stroke-dasharray:none"
         id="path4163"
         sodipodi:cx="257.16357"
         sodipodi:cy="500.46591"
         sodipodi:rx="22.344387"
         sodipodi:ry="22.344387"
         d="m 279.50796,500.46591 c 0,12.34047 -10.00392,22.34439 -22.34439,22.34439 -12.34046,0 -22.34438,-10.00392 -22.34438,-22.34439 0,-12.34046 10.00392,-22.34439 22.34438,-22.34439 12.34047,0 22.34439,10.00393 22.34439,22.34439 z"
         transform="matrix(0.70678551,0,0,0.70678551,206.22031,-54.948993)" />
      <path
         inkscape:export-ydpi="7.8400002"
         inkscape:export-xdpi="7.8400002"
         inkscape:export-filename="/home/peter/downloads/path4186.png"
         transform="matrix(0.90211522,0,0,0.90211522,122.67518,-212.01905)"
         d="m 279.50796,500.46591 c 0,12.34047 -10.00392,22.34439 -22.34439,22.34439 -12.34046,0 -22.34438,-10.00392 -22.34438,-22.34439 0,-12.34046 10.00392,-22.34439 22.34438,-22.34439 12.34047,0 22.34439,10.00393 22.34439,22.34439 z"
         sodipodi:ry="22.344387"
         sodipodi:rx="22.344387"
         sodipodi:cy="500.46591"
         sodipodi:cx="257.16357"
         id="path4165"
         style="fill:none;stroke:#000000;stroke-width:16.62758827;stroke-miterlimit:4;stroke-dasharray:none"
         sodipodi:type="arc" />
      <path
         inkscape:export-ydpi="7.8400002"
         inkscape:export-xdpi="7.8400002"
         inkscape:export-filename="/home/peter/downloads/path4186.png"
         sodipodi:nodetypes="csscccccssc"
         inkscape:connector-curvature="0"
         d="m 455.34371,178.5539 c 0,0 -22.52829,-2.05832 -28.9089,0 -7.22757,2.33154 -5.36623,99.43097 0,117.27105 3.60516,11.98539 104.79477,177.8942 104.79477,177.8942 11.11959,17.03293 24.82264,98.68755 -37.03953,98.38842 l -129.58819,0 -129.58819,0 c -61.86217,0.29913 -48.15912,-81.35549 -37.03953,-98.38842 0,0 101.18961,-165.90881 104.79477,-177.8942 5.36623,-17.84008 7.22757,-114.93951 0,-117.27105 -6.38061,-2.05832 -28.9089,0 -28.9089,0"
         style="fill:none;stroke:#000000;stroke-width:15;stroke-linecap:butt;stroke-linejoin:miter;stroke-miterlimit:4;stroke-opacity:1;stroke-dasharray:none"
         id="path4186" />
    </g>
  </g>
</svg>
